<svg width="72" height="21" viewBox="0 0 72 21" fill="none" xmlns="http://www.w3.org/2000/svg">
<path d="M7.20273 0.894831H12.2003L19.2658 20.7128V21H14.9289L13.5502 16.7779H5.68048L4.30184 21H0.165918V20.7128L7.20273 0.894831ZM9.5579 4.91587L6.82935 13.3026H12.4013L9.67279 4.91587H9.5579ZM25.3727 21H21.4953V0.894831H26.062L34.2764 14.8536H34.3913V0.894831H38.2974V21H33.702L25.4876 7.12743H25.3727V21ZM46.3251 21H42.3615V0.894831H46.3251V21ZM54.1447 21H50.3534V0.894831H54.7191L60.6932 10.9761H60.8081L66.7822 0.894831H71.0905V21H67.2992V7.12743H67.1843L60.8656 17.6396H60.5784L54.2596 7.04127H54.1447V21Z" fill="black"/>
</svg>
