<svg width="172" height="172" viewBox="0 0 172 172" fill="none" xmlns="http://www.w3.org/2000/svg">
<g clip-path="url(#clip0_204_177)">
<path d="M60.8313 78.1132C70.0989 78.1132 77.6118 70.6003 77.6118 61.3327C77.6118 52.0651 70.0989 44.5522 60.8313 44.5522C51.5637 44.5522 44.0508 52.0651 44.0508 61.3327C44.0508 70.6003 51.5637 78.1132 60.8313 78.1132Z" stroke="#BD9957" stroke-width="4.03125" stroke-miterlimit="10"/>
<path d="M64.941 52.9425H60.7459C58.3966 52.9425 56.5508 54.7884 56.5508 57.1376C56.5508 59.4869 58.3966 61.3327 60.7459 61.3327C63.0952 61.3327 64.941 63.1786 64.941 65.5279C64.941 67.8771 63.0952 69.723 60.7459 69.723H56.5508" stroke="#BD9957" stroke-width="4.03125" stroke-miterlimit="10"/>
<path d="M60.8281 48.7473V52.9424" stroke="#BD9957" stroke-width="2.6875" stroke-miterlimit="10"/>
<path d="M60.8281 69.7228V73.9179" stroke="#BD9957" stroke-width="2.6875" stroke-miterlimit="10"/>
<path d="M110.331 128.455C119.599 128.455 127.112 120.942 127.112 111.674C127.112 102.407 119.599 94.8938 110.331 94.8938C101.064 94.8938 93.5508 102.407 93.5508 111.674C93.5508 120.942 101.064 128.455 110.331 128.455Z" stroke="#BD9957" stroke-width="4.03125" stroke-miterlimit="10"/>
<path d="M114.445 103.284H110.25C107.901 103.284 106.055 105.13 106.055 107.479C106.055 109.828 107.901 111.674 110.25 111.674C112.599 111.674 114.445 113.52 114.445 115.869C114.445 118.219 112.599 120.065 110.25 120.065H106.055" stroke="#BD9957" stroke-width="4.03125" stroke-miterlimit="10"/>
<path d="M110.332 99.0887V103.284" stroke="#BD9957" stroke-width="2.6875" stroke-miterlimit="10"/>
<path d="M110.332 120.065V124.26" stroke="#BD9957" stroke-width="2.6875" stroke-miterlimit="10"/>
<path d="M86 60.3259C132.314 60.3259 169.902 71.8206 169.902 86.0001C169.902 94.3903 156.73 101.858 136.341 106.556" stroke="#BD9957" stroke-width="4.03125" stroke-miterlimit="10"/>
<path d="M86.0001 111.674C39.686 111.674 2.09766 100.179 2.09766 85.9999C2.09766 77.6097 15.2703 70.1424 35.6586 65.4438" stroke="#BD9957" stroke-width="4.03125" stroke-miterlimit="10"/>
<path d="M106.473 136.845C101.774 156.897 94.3906 169.902 86.0003 169.902C71.8208 169.902 60.4101 132.65 60.3262 86.5033" stroke="#BD9957" stroke-width="4.03125" stroke-miterlimit="10"/>
<path d="M65.2773 36.162C69.9759 15.4381 77.4432 2.09766 86.0012 2.09766C100.181 2.09766 111.675 39.6859 111.675 86.0001C111.675 86.1679 111.675 86.3357 111.675 86.5035" stroke="#BD9957" stroke-width="4.03125" stroke-miterlimit="10"/>
</g>
<defs>
<clipPath id="clip0_204_177">
<rect width="172" height="172" fill="white"/>
</clipPath>
</defs>
</svg>
