<svg width="175" height="172" viewBox="0 0 175 172" fill="none" xmlns="http://www.w3.org/2000/svg">
<g clip-path="url(#clip0_204_168)">
<path d="M36.8367 172V145.146C36.8367 140.642 35.0521 136.308 31.8229 133.164L14.7419 116.083C12.1075 113.449 10.4079 109.965 9.89798 106.31L2.9296 53.1978C2.9296 53.1978 2.58968 44.6147 11.0877 44.6147C19.5857 44.6147 19.9256 53.1128 19.9256 53.1128L26.809 88.9744C27.6588 93.2234 30.0383 96.9626 33.5225 99.512L56.1272 115.998C60.5462 119.227 63.0956 124.326 63.0956 129.765V138.093" stroke="#BD9957" stroke-width="4.03125" stroke-miterlimit="10"/>
<path d="M79.0692 172V119.652C79.0692 115.148 77.2847 110.814 74.0554 107.67C66.0673 99.6817 59.4388 90.5039 54.425 80.4762L53.4902 78.6916C53.4902 78.6916 50.8558 70.1936 44.9922 70.1936C36.4941 70.1936 36.4941 78.6916 36.4941 78.6916L44.9922 104.186V108.01" stroke="#BD9957" stroke-width="4.03125" stroke-miterlimit="10"/>
<path d="M138.304 172V145.146C138.304 140.642 140.088 136.308 143.318 133.164L160.399 116.083C163.033 113.449 164.733 109.965 165.243 106.31L172.211 53.2827C172.211 53.2827 172.551 44.6997 164.053 44.6997C155.555 44.6997 155.215 53.1977 155.215 53.1977L148.331 89.0594C147.482 93.3084 145.102 97.0475 141.618 99.5969L119.013 116.083C114.594 119.312 112.045 124.411 112.045 129.85V138.178" stroke="#BD9957" stroke-width="4.03125" stroke-miterlimit="10"/>
<path d="M96.0664 172V119.652C96.0664 115.148 97.851 110.814 101.08 107.67C109.068 99.6817 115.697 90.5039 120.711 80.4762L121.645 78.6916C121.645 78.6916 124.28 70.1936 130.143 70.1936C138.642 70.1936 138.642 78.6916 138.642 78.6916L130.143 104.186V108.01" stroke="#BD9957" stroke-width="4.03125" stroke-miterlimit="10"/>
<path d="M87.7382 70.1087C106.512 70.1087 121.73 54.8899 121.73 36.1166C121.73 17.3433 106.512 2.12451 87.7382 2.12451C68.9649 2.12451 53.7461 17.3433 53.7461 36.1166C53.7461 54.8899 68.9649 70.1087 87.7382 70.1087Z" stroke="#BD9957" stroke-width="4.03125" stroke-miterlimit="10"/>
<path d="M79.0703 53.1127H87.5683C92.2422 53.1127 96.0664 49.2886 96.0664 44.6147C96.0664 39.9408 92.2422 36.1167 87.5683 36.1167C82.8944 36.1167 79.0703 32.2925 79.0703 27.6186C79.0703 22.9447 82.8944 19.1206 87.5683 19.1206H96.0664" stroke="#BD9957" stroke-width="4.03125" stroke-miterlimit="10"/>
<path d="M87.7383 10.6223V19.1203" stroke="#BD9957" stroke-width="4.03125" stroke-miterlimit="10"/>
<path d="M87.7383 53.1125V61.6106" stroke="#BD9957" stroke-width="4.03125" stroke-miterlimit="10"/>
</g>
<defs>
<clipPath id="clip0_204_168">
<rect width="173.53" height="172" fill="white" transform="translate(0.804688)"/>
</clipPath>
</defs>
</svg>
