<svg width="170" height="170" viewBox="0 0 170 170" fill="none" xmlns="http://www.w3.org/2000/svg">
<path d="M31.618 142.78C30.4478 142.78 29.5 141.83 29.5 140.655V24.4374C29.5 20.3362 32.8252 16.9999 36.9128 16.9999H138.381C139.551 16.9999 140.499 17.9509 140.499 19.1249V130.437C140.499 131.611 139.551 132.562 138.381 132.562C137.211 132.562 136.263 131.611 136.263 130.437V21.2499H36.9128C35.1611 21.2499 33.7359 22.6799 33.7359 24.4374V140.655C33.7359 141.83 32.7881 142.78 31.618 142.78Z" fill="#BD9957"/>
<path d="M55.2547 132.562C54.0845 132.562 53.1367 131.611 53.1367 130.437V19.1249C53.1367 17.9509 54.0845 16.9999 55.2547 16.9999C56.4248 16.9999 57.3726 17.9509 57.3726 19.1249V130.437C57.3726 131.61 56.424 132.562 55.2547 132.562Z" fill="#BD9957"/>
<path d="M41.8035 153C35.019 153 29.5 147.462 29.5 140.655C29.5 133.848 35.019 128.311 41.8035 128.311L138.382 128.312C139.239 128.312 140.011 128.83 140.339 129.623C140.666 130.417 140.485 131.331 139.88 131.939C137.56 134.267 136.282 137.362 136.282 140.655C136.282 143.948 137.56 147.044 139.88 149.371C140.485 149.979 140.667 150.893 140.339 151.688C140.01 152.482 139.238 152.999 138.382 152.999L41.8035 153ZM41.8035 132.562C37.355 132.562 33.7359 136.193 33.7359 140.656C33.7359 145.12 37.355 148.751 41.8035 148.751L134.14 148.75C132.772 146.305 132.045 143.536 132.045 140.656C132.045 137.776 132.772 135.007 134.14 132.563L41.8035 132.562Z" fill="#BD9957"/>
<path d="M96.8197 101.944C89.5878 101.944 82.7891 99.1189 77.6761 93.9879C72.5621 88.8578 69.7461 82.0356 69.7461 74.7805C69.7461 67.5254 72.5621 60.7033 77.6761 55.5732C82.79 50.4431 89.5886 47.6168 96.8197 47.6168C104.052 47.6168 110.85 50.4422 115.963 55.5732C121.076 60.7042 123.893 67.5254 123.893 74.7805C123.893 82.0356 121.077 88.8578 115.963 93.9879C110.85 99.1189 104.051 101.944 96.8197 101.944ZM96.8197 51.8668C84.2267 51.8668 73.982 62.1456 73.982 74.7805C73.982 87.4154 84.2267 97.6942 96.8197 97.6942C109.413 97.6942 119.657 87.4154 119.657 74.7805C119.657 62.1456 109.412 51.8668 96.8197 51.8668Z" fill="#BD9957"/>
<path d="M105.905 76.3512L105.889 76.3282C105.158 75.2497 104.025 74.3511 102.523 73.656C101.512 73.1956 99.6502 72.6564 96.9878 72.0516C93.8268 71.3344 92.7016 70.7642 92.3142 70.4118C91.7874 69.9381 91.5314 69.3493 91.5314 68.6109C91.5314 67.7476 91.91 67.0242 92.6884 66.3982C93.4897 65.7537 94.8284 65.4269 96.6657 65.4269C98.4227 65.4269 99.7535 65.7891 100.621 66.5036C101.227 67.003 101.662 67.6883 101.914 68.5409C102.181 69.445 102.981 70.0524 103.904 70.0524C103.958 70.0524 104.011 70.0506 104.064 70.0462L104.083 70.0444C104.556 70.009 105.01 69.8266 105.359 69.5043C105.959 68.9509 106.18 68.139 105.968 67.3873C105.753 66.6249 105.423 65.9006 104.987 65.2348C104.185 64.0103 103.028 63.0717 101.548 62.4457C100.1 61.833 98.4121 61.5231 96.5316 61.5231C94.8187 61.5231 93.2355 61.8189 91.828 62.4024C90.3851 63.0009 89.2688 63.8952 88.5107 65.0595C87.7553 66.2212 87.3714 67.49 87.3714 68.8296C87.3714 70.0559 87.6882 71.1804 88.3139 72.1729C88.9352 73.1602 89.883 73.9925 91.1299 74.6477C92.0689 75.1479 93.705 75.6809 95.9924 76.2317C98.2127 76.7665 99.6635 77.1649 100.305 77.4155C101.238 77.7723 101.906 78.2053 102.292 78.7029C102.665 79.1854 102.855 79.7609 102.855 80.4135C102.855 81.0616 102.653 81.6699 102.256 82.2224C101.854 82.782 101.218 83.2336 100.367 83.5656C99.4808 83.9109 98.4386 84.0853 97.2684 84.0853C95.9491 84.0853 94.7498 83.8533 93.7023 83.3965C92.6813 82.9511 91.9241 82.3685 91.4511 81.6646C91.1537 81.2219 90.9199 80.6915 90.7549 80.0868C90.5033 79.1651 89.6676 78.5214 88.7225 78.5214C88.6616 78.5214 88.5998 78.524 88.5398 78.5293C87.9327 78.5825 87.3794 78.8977 87.022 79.3935C86.6619 79.8929 86.5366 80.5251 86.6778 81.1271C86.9099 82.1153 87.3097 83.0485 87.8665 83.8994C88.7737 85.2851 90.0392 86.3361 91.6276 87.0231C93.1879 87.6978 95.1364 88.0405 97.4193 88.0405C99.239 88.0405 100.903 87.6996 102.367 87.0267C103.852 86.344 105.01 85.3701 105.81 84.1314C106.609 82.8918 107.015 81.5504 107.015 80.1443C107.015 78.7232 106.641 77.4474 105.905 76.3512Z" fill="#BD9957"/>
<path d="M96.8172 91.4104C95.647 91.4104 94.6992 90.4595 94.6992 89.2854V87.7262C94.6992 86.5521 95.647 85.6012 96.8172 85.6012C97.9873 85.6012 98.9351 86.5521 98.9351 87.7262V89.2854C98.9351 90.4595 97.9865 91.4104 96.8172 91.4104Z" fill="#BD9957"/>
<path d="M96.8172 63.9547C95.647 63.9547 94.6992 63.0037 94.6992 61.8297V60.2758C94.6992 59.1017 95.647 58.1508 96.8172 58.1508C97.9873 58.1508 98.9351 59.1017 98.9351 60.2758V61.8297C98.9351 63.0037 97.9865 63.9547 96.8172 63.9547Z" fill="#BD9957"/>
</svg>
