<svg width="192" height="26" viewBox="0 0 192 26" fill="none" xmlns="http://www.w3.org/2000/svg">
<path d="M4.18153 21H0.217941V0.894831H4.18153V21ZM16.5392 21.2585C13.5234 21.2585 11.1682 20.3107 9.53109 18.415C7.89396 16.4907 7.06103 14.0206 7.06103 10.9761C7.06103 7.90292 7.89396 5.43285 9.53109 3.5085C11.1682 1.58415 13.5234 0.636336 16.5392 0.636336C19.0092 0.636336 21.0198 1.35438 22.5995 2.79046C24.1791 4.22654 25.0408 6.03601 25.1844 8.21886H21.1634C20.9336 5.8924 19.3826 4.22654 16.5392 4.22654C12.949 4.22654 11.0821 6.8115 11.0821 10.9761C11.0821 15.1408 12.949 17.697 16.5392 17.697C19.2677 17.697 20.7613 16.1748 21.1921 13.877H25.1844C24.9546 16.0312 24.0643 17.7832 22.5133 19.1905C20.991 20.5692 18.9805 21.2585 16.5392 21.2585ZM36.395 21.2585C33.3792 21.2585 31.024 20.3107 29.3869 18.415C27.7498 16.4907 26.9455 14.0206 26.9455 10.9761C26.9455 7.90292 27.7498 5.40413 29.3869 3.5085C31.024 1.58415 33.3792 0.636336 36.395 0.636336C38.865 0.636336 40.8756 1.29693 42.4265 2.64685C43.9775 3.99677 44.8679 5.69135 45.0689 7.73059H41.0479C40.7319 5.69135 39.181 4.22654 36.395 4.22654C32.8048 4.22654 30.9666 6.8115 30.9666 10.9761C30.9666 15.1408 32.8048 17.697 36.395 17.697C39.2959 17.697 40.933 16.0312 41.2489 13.7334H36.9694V10.2294H45.27V12.3261C45.27 15.0259 44.4658 17.18 42.8286 18.8172C41.1915 20.4543 39.0661 21.2585 36.395 21.2585ZM64.4451 21H55.1585V7.59655H64.4451V9.95173H57.7817V12.9196H63.8515V15.2557H57.7817V18.664H64.4451V21ZM68.5878 21H66.022V11.0432H68.3197L68.5112 12.1729H68.5878C69.2388 11.3112 70.177 10.8708 71.4216 10.8708C73.6236 10.8708 75.0406 12.2686 75.0406 14.4706V21H72.4748V15.1982C72.4748 13.877 71.862 13.2069 70.6366 13.2069C69.4111 13.2069 68.5878 14.0877 68.5878 15.4854V21ZM82.6802 21H80.8038C78.6784 21 77.6827 19.832 77.6827 17.9747V13.226H76.0551V11.0432H77.7784V8.41991H80.2485V11.0432H82.642V13.226H80.2485V17.4194C80.2485 18.3576 80.6314 18.7597 81.5314 18.7597H82.6802V21ZM88.4819 21.1723C86.9883 21.1723 85.8203 20.6936 84.9587 19.7362C84.097 18.7597 83.6758 17.5343 83.6758 16.0407C83.6758 14.5472 84.0779 13.3217 84.9012 12.3452C85.7246 11.3687 86.9118 10.8708 88.4436 10.8708C89.8797 10.8708 91.0094 11.3304 91.8327 12.2495C92.6561 13.1686 93.0773 14.3366 93.0773 15.7344V16.73H86.299C86.3182 18.1661 87.0458 19.0469 88.4819 19.0469C89.535 19.0469 90.186 18.664 90.4349 17.8981H92.9433C92.8093 18.8363 92.3306 19.6214 91.5264 20.2532C90.7413 20.866 89.7265 21.1723 88.4819 21.1723ZM86.3182 15.0259H90.4541C90.3966 13.8196 89.7265 13.0154 88.4436 13.0154C87.0649 13.0154 86.3756 13.8196 86.3182 15.0259ZM96.8052 21H94.3734V11.0432H96.5371L96.7286 12.5558H96.8052C97.3222 11.4453 98.1838 10.89 99.3901 10.89H100.118V13.2643H99.2178C97.686 13.2643 96.8052 14.2983 96.8052 16.1173V21ZM103.903 25.3848H101.337V11.0432H103.635L103.903 12.1154H103.979C104.611 11.2921 105.53 10.8708 106.737 10.8708C107.981 10.8708 108.958 11.3495 109.704 12.3069C110.451 13.2451 110.815 14.4898 110.815 16.0407C110.815 17.5534 110.451 18.7789 109.724 19.7362C108.996 20.6936 108 21.1723 106.737 21.1723C105.53 21.1723 104.611 20.7511 103.979 19.9277H103.903V25.3848ZM108.211 16.0407C108.211 14.2983 107.541 13.1303 106.009 13.1303C105.262 13.1303 104.707 13.3983 104.343 13.9536C103.979 14.4898 103.807 15.1791 103.807 16.0407C103.807 16.9024 103.979 17.5917 104.324 18.1278C104.688 18.6448 105.243 18.9129 106.009 18.9129C107.541 18.9129 108.211 17.7449 108.211 16.0407ZM114.547 21H112.115V11.0432H114.279L114.47 12.5558H114.547C115.064 11.4453 115.925 10.89 117.132 10.89H117.859V13.2643H116.959C115.428 13.2643 114.547 14.2983 114.547 16.1173V21ZM121.74 9.62622H118.983V6.94553H121.74V9.62622ZM121.644 21H119.079V11.0432H121.644V21ZM127.103 21.1723C124.288 21.1723 122.833 19.8128 122.775 17.6491H125.341C125.341 18.4342 125.973 19.0086 127.103 19.0086C128.175 19.0086 128.75 18.6257 128.75 18.0895C128.75 17.6108 128.367 17.2853 127.601 17.1321L125.992 16.8258C124.058 16.462 123.082 15.4471 123.082 13.8004C123.082 12.1154 124.594 10.8708 127.045 10.8708C128.271 10.8708 129.247 11.1772 129.994 11.8091C130.741 12.4218 131.105 13.2069 131.105 14.1834H128.577C128.577 13.4366 128.003 12.9196 127.007 12.9196C126.145 12.9196 125.59 13.2834 125.59 13.8196C125.59 14.2791 125.935 14.5855 126.605 14.7195L128.424 15.045C130.243 15.4088 131.334 16.2322 131.334 18.0704C131.334 19.0469 130.932 19.7937 130.147 20.349C129.362 20.9043 128.347 21.1723 127.103 21.1723ZM136.882 21.1723C135.389 21.1723 134.221 20.6936 133.359 19.7362C132.498 18.7597 132.076 17.5343 132.076 16.0407C132.076 14.5472 132.478 13.3217 133.302 12.3452C134.125 11.3687 135.312 10.8708 136.844 10.8708C138.28 10.8708 139.41 11.3304 140.233 12.2495C141.057 13.1686 141.478 14.3366 141.478 15.7344V16.73H134.7C134.719 18.1661 135.446 19.0469 136.882 19.0469C137.935 19.0469 138.587 18.664 138.835 17.8981H141.344C141.21 18.8363 140.731 19.6214 139.927 20.2532C139.142 20.866 138.127 21.1723 136.882 21.1723ZM134.719 15.0259H138.855C138.797 13.8196 138.127 13.0154 136.844 13.0154C135.465 13.0154 134.776 13.8196 134.719 15.0259ZM153.595 21H150.953V9.97088H147.008V7.59655H157.539V9.97088H153.595V21ZM160.797 21H158.365V11.0432H160.529L160.72 12.5558H160.797C161.314 11.4453 162.176 10.89 163.382 10.89H164.109V13.2643H163.21C161.678 13.2643 160.797 14.2983 160.797 16.1173V21ZM168.909 21.1723C166.707 21.1723 165.29 19.7745 165.29 17.5725V11.0432H167.856V16.8449C167.856 18.1661 168.469 18.8363 169.694 18.8363C170.92 18.8363 171.743 17.9555 171.743 16.5577V11.0432H174.309V21H172.011L171.82 19.8703H171.743C171.092 20.7319 170.154 21.1723 168.909 21.1723ZM179.729 21.1723C176.915 21.1723 175.459 19.8128 175.402 17.6491H177.968C177.968 18.4342 178.6 19.0086 179.729 19.0086C180.802 19.0086 181.376 18.6257 181.376 18.0895C181.376 17.6108 180.993 17.2853 180.227 17.1321L178.619 16.8258C176.685 16.462 175.708 15.4471 175.708 13.8004C175.708 12.1154 177.221 10.8708 179.672 10.8708C180.897 10.8708 181.874 11.1772 182.621 11.8091C183.367 12.4218 183.731 13.2069 183.731 14.1834H181.204C181.204 13.4366 180.629 12.9196 179.634 12.9196C178.772 12.9196 178.217 13.2834 178.217 13.8196C178.217 14.2791 178.561 14.5855 179.231 14.7195L181.05 15.045C182.87 15.4088 183.961 16.2322 183.961 18.0704C183.961 19.0469 183.559 19.7937 182.774 20.349C181.989 20.9043 180.974 21.1723 179.729 21.1723ZM191.213 21H189.337C187.211 21 186.215 19.832 186.215 17.9747V13.226H184.588V11.0432H186.311V8.41991H188.781V11.0432H191.175V13.226H188.781V17.4194C188.781 18.3576 189.164 18.7597 190.064 18.7597H191.213V21Z" fill="black"/>
</svg>
