<svg width="46" height="22" viewBox="0 0 46 22" fill="none" xmlns="http://www.w3.org/2000/svg">
<path d="M4.60443 21H0.640842V0.894831H4.60443V21ZM16.9621 21.2585C13.9463 21.2585 11.5911 20.3107 9.95399 18.415C8.31686 16.4907 7.48393 14.0206 7.48393 10.9761C7.48393 7.90292 8.31686 5.43285 9.95399 3.5085C11.5911 1.58415 13.9463 0.636336 16.9621 0.636336C19.4321 0.636336 21.4427 1.35438 23.0224 2.79046C24.602 4.22654 25.4637 6.03601 25.6073 8.21886H21.5863C21.3565 5.8924 19.8055 4.22654 16.9621 4.22654C13.3719 4.22654 11.505 6.8115 11.505 10.9761C11.505 15.1408 13.3719 17.697 16.9621 17.697C19.6906 17.697 21.1842 16.1748 21.615 13.877H25.6073C25.3775 16.0312 24.4872 17.7832 22.9362 19.1905C21.4139 20.5692 19.4034 21.2585 16.9621 21.2585ZM36.8179 21.2585C33.8021 21.2585 31.4469 20.3107 29.8098 18.415C28.1727 16.4907 27.3684 14.0206 27.3684 10.9761C27.3684 7.90292 28.1727 5.40413 29.8098 3.5085C31.4469 1.58415 33.8021 0.636336 36.8179 0.636336C39.2879 0.636336 41.2985 1.29693 42.8494 2.64685C44.4004 3.99677 45.2908 5.69135 45.4918 7.73059H41.4708C41.1548 5.69135 39.6039 4.22654 36.8179 4.22654C33.2277 4.22654 31.3895 6.8115 31.3895 10.9761C31.3895 15.1408 33.2277 17.697 36.8179 17.697C39.7188 17.697 41.3559 16.0312 41.6718 13.7334H37.3923V10.2294H45.6929V12.3261C45.6929 15.0259 44.8887 17.18 43.2515 18.8172C41.6144 20.4543 39.489 21.2585 36.8179 21.2585Z" fill="black"/>
</svg>
