<svg width="80" height="22" viewBox="0 0 80 22" fill="none" xmlns="http://www.w3.org/2000/svg">
<path d="M16.8931 1.18205L8.13302 10.5166L17.2091 20.7128V21H12.5274L4.6577 12.0676V21H0.722831V0.894831H4.6577V9.05179L12.2689 0.894831H16.8931V1.18205ZM23.2239 21H19.2891V0.894831H27.9056C29.9161 0.894831 31.5245 1.49799 32.7308 2.73302C33.9371 3.96805 34.5403 5.51902 34.5403 7.44337C34.5403 9.39645 33.9371 11.0049 32.7021 12.2399C31.4958 13.4749 29.8874 14.1068 27.9056 14.1068H23.2239V21ZM23.2239 4.39888V10.574H27.1875C29.3991 10.574 30.5192 9.54005 30.5192 7.44337C30.5192 5.4903 29.2842 4.39888 27.1875 4.39888H23.2239ZM41.2539 21H37.4626V0.894831H41.8283L47.8024 10.9761H47.9173L53.8914 0.894831H58.1997V21H54.4084V7.12743H54.2935L47.9748 17.6396H47.6875L41.3688 7.04127H41.2539V21ZM70.5562 21.2585C67.5404 21.2585 65.1853 20.3107 63.5481 18.415C61.911 16.4907 61.1068 14.0206 61.1068 10.9761C61.1068 7.90292 61.911 5.40413 63.5481 3.5085C65.1853 1.58415 67.5404 0.636336 70.5562 0.636336C73.0263 0.636336 75.0368 1.29693 76.5878 2.64685C78.1387 3.99677 79.0291 5.69135 79.2301 7.73059H75.2091C74.8932 5.69135 73.3422 4.22654 70.5562 4.22654C66.966 4.22654 65.1278 6.8115 65.1278 10.9761C65.1278 15.1408 66.966 17.697 70.5562 17.697C73.4571 17.697 75.0942 16.0312 75.4102 13.7334H71.1306V10.2294H79.4312V12.3261C79.4312 15.0259 78.627 17.18 76.9899 18.8172C75.3527 20.4543 73.2273 21.2585 70.5562 21.2585Z" fill="black"/>
</svg>
