<svg width="170" height="170" viewBox="0 0 170 170" fill="none" xmlns="http://www.w3.org/2000/svg">
<path d="M147.808 85.5502H145.683L127.831 34.4304H130.665C134.207 34.4304 134.207 29.0345 130.665 29.0345H87.7362V19.6625C87.7362 16.1125 82.3524 16.1125 82.3524 19.6625V29.0345H39.5653C36.0233 29.0345 36.0233 34.4304 39.5653 34.4304H42.2572L24.5473 85.5502H22.2805C21.5721 85.5502 20.8637 85.8342 20.297 86.4022C17.0383 89.8102 23.4139 114.802 46.0825 114.802C70.0263 114.802 77.2519 85.5502 69.8846 85.5502H67.7594L49.9079 34.4304H82.3524V131.132H47.0743C45.5158 131.132 44.3824 132.41 44.3824 133.83V150.302C44.3824 151.864 45.6575 153 47.0743 153H123.014C124.573 153 125.706 151.722 125.706 150.302V133.972C125.706 132.41 124.431 131.274 123.014 131.274H87.7362V34.4304H120.181L102.471 85.5502C100.629 85.5502 99.4955 85.2662 98.3621 86.4022C94.9618 89.8102 101.337 114.802 124.006 114.802C138.741 114.802 150.5 102.874 150.5 88.2482C150.5 86.8282 149.367 85.5502 147.808 85.5502ZM25.2557 90.9462H26.5308C41.9739 90.9462 51.608 90.9462 67.051 90.9462C63.7924 115.512 28.3727 115.086 25.2557 90.9462ZM30.2145 85.5502L46.0825 39.9684L61.9506 85.5502H30.2145ZM120.322 147.462H49.7662V136.528H120.322V147.462ZM124.006 39.9684L139.874 85.5502H108.138L124.006 39.9684ZM103.179 90.9462C118.055 90.9462 130.523 90.9462 144.975 90.9462C141.858 115.512 106.296 115.086 103.179 90.9462Z" fill="#BD9957"/>
</svg>
