<svg width="24" height="25" viewBox="0 0 24 25" fill="none" xmlns="http://www.w3.org/2000/svg">
<g clip-path="url(#clip0_382_769)">
<path fill-rule="evenodd" clip-rule="evenodd" d="M2.66667 24.3877H21.3333C22.8061 24.3877 24 23.1938 24 21.721V3.05436C24 1.5816 22.8061 0.387695 21.3333 0.387695H2.66667C1.19391 0.387695 0 1.5816 0 3.05436V21.721C0 23.1938 1.19391 24.3877 2.66667 24.3877Z" fill="white"/>
<path fill-rule="evenodd" clip-rule="evenodd" d="M20.6693 21.054H17.1078V14.9881C17.1078 13.325 16.4759 12.3955 15.1595 12.3955C13.7275 12.3955 12.9793 13.3627 12.9793 14.9881V21.054H9.54705V9.49848H12.9793V11.055C12.9793 11.055 14.0113 9.14544 16.4635 9.14544C18.9145 9.14544 20.6693 10.6422 20.6693 13.7378V21.054ZM5.45239 7.98537C4.28329 7.98537 3.33594 7.03059 3.33594 5.85304C3.33594 4.67549 4.28329 3.7207 5.45239 3.7207C6.62148 3.7207 7.56827 4.67549 7.56827 5.85304C7.56827 7.03059 6.62148 7.98537 5.45239 7.98537ZM3.68012 21.054H7.25907V9.49848H3.68012V21.054Z" fill="#09090C"/>
</g>
<defs>
<clipPath id="clip0_382_769">
<rect width="24" height="24" fill="white" transform="translate(0 0.387695)"/>
</clipPath>
</defs>
</svg>
