<svg width="172" height="172" viewBox="0 0 172 172" fill="none" xmlns="http://www.w3.org/2000/svg">
<g clip-path="url(#clip0_204_198)">
<path d="M39.3496 86.0001C39.3496 60.242 60.2413 39.3503 85.9994 39.3503C111.757 39.3503 132.649 60.242 132.649 86.0001C132.649 111.758 111.757 132.65 85.9994 132.65" stroke="#BD9957" stroke-width="4.03125" stroke-miterlimit="10"/>
<path d="M151.275 86C151.275 109.744 138.606 130.552 119.56 141.963C109.743 147.836 98.2485 151.276 85.9988 151.276C70.2251 151.276 55.7939 145.655 44.467 136.341C29.9519 124.343 20.7227 106.22 20.7227 86C20.7227 72.6595 24.6661 60.3258 31.5461 50.0058C43.2085 32.3863 63.2612 20.7239 85.9988 20.7239" stroke="#BD9957" stroke-width="4.03125" stroke-miterlimit="10"/>
<path d="M86.0001 2.09766C132.314 2.09766 169.903 39.686 169.903 86.0001C169.903 132.314 132.314 169.903 86.0001 169.903C39.686 169.903 2.09766 132.314 2.09766 86.0001" stroke="#BD9957" stroke-width="4.03125" stroke-miterlimit="10"/>
<path d="M97.4089 62.675H85.7464C79.2859 62.675 74.084 67.877 74.084 74.3375C74.084 80.798 79.2859 85.9999 85.7464 85.9999C92.2069 85.9999 97.4089 91.2019 97.4089 97.6624C97.4089 104.123 92.2069 109.325 85.7464 109.325H74.084" stroke="#BD9957" stroke-width="4.03125" stroke-miterlimit="10"/>
<path d="M85.748 52.439V62.9268" stroke="#BD9957" stroke-width="4.03125" stroke-miterlimit="10"/>
<path d="M86 109.325V119.813" stroke="#BD9957" stroke-width="4.03125" stroke-miterlimit="10"/>
</g>
<defs>
<clipPath id="clip0_204_198">
<rect width="172" height="172" fill="white"/>
</clipPath>
</defs>
</svg>
