<svg width="172" height="172" viewBox="0 0 172 172" fill="none" xmlns="http://www.w3.org/2000/svg">
<g clip-path="url(#clip0_204_190)">
<path d="M86.0018 90.1949C88.3187 90.1949 90.1969 88.3167 90.1969 85.9998C90.1969 83.6829 88.3187 81.8047 86.0018 81.8047C83.6849 81.8047 81.8066 83.6829 81.8066 85.9998C81.8066 88.3167 83.6849 90.1949 86.0018 90.1949Z" stroke="#BD9957" stroke-width="4.03125" stroke-miterlimit="10"/>
<path d="M86.0001 169.903C132.338 169.903 169.903 132.338 169.903 86.0001C169.903 39.6621 132.338 2.09766 86.0001 2.09766C39.6621 2.09766 2.09766 39.6621 2.09766 86.0001C2.09766 132.338 39.6621 169.903 86.0001 169.903Z" stroke="#BD9957" stroke-width="4.03125" stroke-miterlimit="10"/>
<path fill-rule="evenodd" clip-rule="evenodd" d="M133.489 38.2595L74.1703 73.8342L38.5117 133.153L97.8307 97.5785L133.489 38.2595Z" stroke="#BD9957" stroke-width="4.03125" stroke-miterlimit="10"/>
<path d="M86 2.09766V18.8781" stroke="#BD9957" stroke-width="4.03125" stroke-miterlimit="10"/>
<path d="M83.9863 153.122V169.902" stroke="#BD9957" stroke-width="4.03125" stroke-miterlimit="10"/>
<path d="M18.8781 85.7484H2.09766" stroke="#BD9957" stroke-width="4.03125" stroke-miterlimit="10"/>
<path d="M169.902 85.7484H153.121" stroke="#BD9957" stroke-width="4.03125" stroke-miterlimit="10"/>
</g>
<defs>
<clipPath id="clip0_204_190">
<rect width="172" height="172" fill="white"/>
</clipPath>
</defs>
</svg>
