<svg width="170" height="170" viewBox="0 0 170 170" fill="none" xmlns="http://www.w3.org/2000/svg">
<path d="M117.869 103.327V102.421C117.869 101.137 116.833 100.098 115.551 100.098C114.27 100.098 113.234 101.137 113.234 102.421V103.403C112.405 103.655 111.601 103.995 110.86 104.498C108.938 105.795 107.638 107.753 107.205 110C106.332 114.508 109.189 118.902 113.711 119.997C114.327 120.148 114.974 120.211 115.621 120.274C116.349 120.35 116.99 120.406 117.379 120.633C118.409 121.237 119.131 122.301 119.307 123.485C119.634 125.663 118.127 127.703 115.954 128.03C113.793 128.326 111.746 126.846 111.419 124.668C111.231 123.403 110.062 122.528 108.781 122.717C107.513 122.906 106.646 124.089 106.834 125.355C107.362 128.88 109.975 131.568 113.228 132.411V133.299C113.228 134.583 114.264 135.622 115.545 135.622C116.827 135.622 117.863 134.583 117.863 133.299V132.304C121.882 131.083 124.527 127.079 123.886 122.786C123.497 120.224 121.939 117.914 119.716 116.617C118.447 115.868 117.115 115.736 116.054 115.635C115.627 115.597 115.2 115.559 114.786 115.459C112.675 114.955 111.344 112.934 111.74 110.863C111.94 109.837 112.537 108.937 113.435 108.332C114.327 107.728 115.382 107.501 116.412 107.703C117.455 107.904 118.359 108.502 118.956 109.384C119.552 110.265 119.772 111.335 119.565 112.386C119.32 113.646 120.143 114.867 121.399 115.106C122.649 115.333 123.874 114.527 124.112 113.268C124.552 111.002 124.087 108.698 122.793 106.784C121.631 105.059 119.885 103.863 117.869 103.327Z" fill="#BD9957"/>
<path d="M143.496 117.87C143.496 103.215 132.198 91.1665 117.871 89.982L117.877 25.1289C117.877 22.4157 116.765 19.7843 114.787 17.8517C112.897 16.0135 110.403 15 107.778 15L36.5951 15.0063C33.9636 15.0063 31.4765 16.0135 29.5484 17.8896C27.614 19.7782 26.4961 22.4158 26.4961 25.1291V145.909C26.4961 148.647 27.6266 151.304 29.5987 153.192C31.4829 155.005 33.9573 156 36.5637 156H107.809C110.422 156 112.897 155.005 114.768 153.199C116.74 151.304 117.871 148.653 117.871 145.909V145.758C132.197 144.562 143.496 132.526 143.496 117.87ZM111.56 149.844C110.543 150.82 109.211 151.355 107.804 151.355H36.5589C35.1521 151.355 33.8144 150.82 32.8032 149.844C31.7355 148.824 31.1325 147.389 31.1325 145.916L31.1263 25.1297C31.1263 23.6629 31.7292 22.2465 32.8032 21.1889C33.8269 20.1943 35.1773 19.6466 36.5967 19.6466H107.779C109.199 19.6466 110.543 20.1943 111.598 21.2204C112.647 22.2402 113.243 23.6566 113.243 25.1235V89.9766C106.172 90.5621 99.8534 93.7978 95.2504 98.6891L44.429 98.6954C43.1478 98.6954 42.1115 99.7341 42.1115 101.018C42.1115 102.303 43.1478 103.341 44.429 103.341H91.7212C89.209 107.465 87.7268 112.268 87.6451 117.417H44.4287C43.1474 117.417 42.1112 118.456 42.1112 119.74C42.1112 121.025 43.1475 122.063 44.4287 122.063H87.9651C88.769 127.402 91.0614 132.236 94.434 136.139L44.4277 136.146C43.1465 136.146 42.1102 137.184 42.1102 138.469C42.1102 139.753 43.1465 140.792 44.4277 140.792H99.5581C103.502 143.562 108.175 145.337 113.243 145.758V145.91C113.243 147.383 112.628 148.818 111.56 149.844ZM115.555 141.226C102.705 141.226 92.2477 130.751 92.2477 117.871C92.2477 104.991 102.698 94.5094 115.555 94.5094C128.411 94.5094 138.861 104.985 138.861 117.871C138.861 130.751 128.404 141.226 115.555 141.226Z" fill="#BD9957"/>
<path d="M44.4269 84.6189H99.9335C101.215 84.6189 102.251 83.5802 102.251 82.2959C102.251 81.0117 101.215 79.973 99.9335 79.973H44.4269C43.1456 79.973 42.1094 81.0117 42.1094 82.2959C42.1094 83.5739 43.1457 84.6189 44.4269 84.6189Z" fill="#BD9957"/>
<path d="M57.2939 64.2856C57.7335 64.6885 58.2988 64.8899 58.8515 64.8899C59.4795 64.8899 60.1076 64.6381 60.5598 64.1345L87.2077 34.7989C88.0681 33.8547 87.999 32.3816 87.0569 31.5128C86.1149 30.6566 84.6515 30.7196 83.7847 31.6639L57.1368 60.9994C56.2827 61.9563 56.3518 63.4168 57.2939 64.2856Z" fill="#BD9957"/>
<path d="M61.7626 46.5773C63.9859 46.5773 66.1967 45.6707 67.8045 43.9082C70.8317 40.5717 70.5868 35.3844 67.2643 32.3501C63.9294 29.3158 58.7605 29.5612 55.7333 32.8915C54.2636 34.5093 53.51 36.5994 53.6105 38.7837C53.7109 40.9619 54.6593 42.9764 56.2733 44.4557C57.8372 45.8721 59.7967 46.5773 61.7626 46.5773ZM59.1562 36.0138C59.8533 35.2458 60.8079 34.8555 61.7689 34.8555C62.6168 34.8555 63.4647 35.1577 64.143 35.7746C65.5812 37.0903 65.688 39.3251 64.3754 40.7731C63.0627 42.221 60.8332 42.3217 59.3886 41.0123C57.9503 39.6966 57.8436 37.4556 59.1562 36.0138Z" fill="#BD9957"/>
<path d="M76.5655 51.8958C73.5383 55.2323 73.7831 60.4196 77.1056 63.4602C78.6632 64.8829 80.6352 65.588 82.5948 65.588C84.8181 65.588 87.0289 64.6815 88.6367 62.9189C91.6639 59.5824 91.419 54.3951 88.0965 51.3608C84.7679 48.3202 79.5926 48.5656 76.5655 51.8958ZM84.9751 54.7854C86.4197 56.1011 86.5201 58.3484 85.2138 59.7839C83.9012 61.2318 81.6716 61.3325 80.227 60.0231C78.7825 58.7074 78.682 56.4601 79.9883 55.0246C80.6855 54.2566 81.6463 53.8663 82.601 53.8663C83.4489 53.8726 84.3031 54.1748 84.9751 54.7854Z" fill="#BD9957"/>
</svg>
