<svg width="170" height="170" viewBox="0 0 170 170" fill="none" xmlns="http://www.w3.org/2000/svg">
<path d="M156.49 46.4737C156.49 42.3675 153.401 39.0263 149.608 39.0263H120.938C119.906 28.8952 112.128 21 102.71 21H68.2774C58.8537 21 51.0757 28.9017 50.045 39.0263H21.375C17.5817 39.0263 14.4922 42.3675 14.4922 46.4677V71.8401C14.4922 74.9302 15.3391 77.8051 16.7884 80.208V140.547C16.7884 144.653 19.872 147.994 23.6653 147.994V143.404C22.4009 143.404 21.3691 142.125 21.3691 140.553V84.9543C23.3969 86.2573 25.7469 87.0105 28.2638 87.0105L78.6153 87.0164V88.3852C78.6153 93.2326 79.1163 96.0417 81.6691 96.0417H89.3213C91.874 96.0417 92.381 93.1129 92.381 88.3852V87.0164H142.733C145.243 87.0164 147.593 86.2574 149.621 84.9603V140.552C149.621 142.124 148.589 143.41 147.319 143.41V148C151.112 148 154.202 144.659 154.202 140.552L154.196 80.2138C155.639 77.8171 156.492 74.9421 156.492 71.8459L156.49 46.4737ZM116.32 39.0263H113.976C113.129 33.9936 109.556 30.0011 105 28.9849V25.829C110.851 26.9527 115.455 32.2962 116.32 39.0263ZM100.419 28.7279H70.5674V25.5899H100.419V28.7279ZM68.2771 33.3182H102.709C105.817 33.3182 108.417 35.7329 109.27 39.0263H61.7053C62.5641 35.739 65.1636 33.3182 68.2771 33.3182ZM65.9868 25.8231V28.9789C61.43 29.995 57.8514 33.9876 57.0045 39.0203H54.6665C55.5254 32.2962 60.1297 26.9528 65.9868 25.8231ZM87.6377 91.4452H83.3434C83.2599 90.722 83.1884 89.694 83.1884 88.379V77.9969H87.7928V88.379C87.7988 89.6999 87.7272 90.7219 87.6377 91.4452ZM151.91 71.8459C151.91 77.6795 147.788 82.4253 142.725 82.4253H92.3793V77.8409C92.3793 76.514 92.3793 73.412 89.7789 73.412H81.2141C78.6136 73.412 78.6136 76.514 78.6136 77.8409V82.4253L28.2621 82.4193C23.1984 82.4193 19.0771 77.6735 19.0771 71.8459L19.0711 46.4735C19.0711 44.9016 20.1029 43.6225 21.3733 43.6225L149.612 43.6165C150.859 43.6165 151.914 44.9255 151.914 46.4735L151.91 71.8459Z" fill="#BD9957"/>
<path d="M23.6719 143.41H147.313V148H23.6719V143.41Z" fill="#BD9957"/>
</svg>
